<svg width="50" height="50" viewBox="0 0 50 50" fill="none" xmlns="http://www.w3.org/2000/svg">
<path d="M3.14453 42.7062V34.8937C3.14453 33.8868 3.48568 33.034 4.16797 32.3354C4.85026 31.6372 5.67752 31.2747 6.64974 31.2479H13.0721C13.6999 31.2479 14.2963 31.4016 14.8612 31.7089C15.4258 32.0158 15.8859 32.4444 16.2414 32.9948C17.2747 34.4156 18.556 35.5214 20.0852 36.312C21.6143 37.1026 23.2523 37.4979 24.9992 37.4979C26.7673 37.4979 28.4192 37.1026 29.9549 36.312C31.4911 35.5214 32.7652 34.4156 33.7773 32.9948C34.1753 32.4444 34.6513 32.0158 35.2055 31.7089C35.7596 31.4016 36.3332 31.2479 36.9263 31.2479H43.3487C44.3421 31.2747 45.178 31.6372 45.8565 32.3354C46.535 33.034 46.8742 33.8868 46.8742 34.8937V42.7062H33.3326V37.8062C32.144 38.7146 30.8433 39.4111 29.4305 39.8958C28.0173 40.3806 26.5402 40.6229 24.9992 40.6229C23.493 40.6229 22.0313 40.3785 20.6143 39.8896C19.1973 39.4007 17.8878 38.7023 16.6857 37.7943V42.7062H3.14453ZM8.93359 28.363C7.3579 28.363 6.00911 27.8023 4.88724 26.6807C3.76536 25.5589 3.20443 24.2099 3.20443 22.6339C3.20443 21.0234 3.76536 19.666 4.88724 18.5615C6.00911 17.4573 7.3579 16.9052 8.93359 16.9052C10.544 16.9052 11.9015 17.4573 13.006 18.5615C14.1105 19.666 14.6628 21.0234 14.6628 22.6339C14.6628 24.2099 14.1105 25.5589 13.006 26.6807C11.9015 27.8023 10.544 28.363 8.93359 28.363ZM41.0648 28.363C39.4891 28.363 38.1404 27.8023 37.0185 26.6807C35.8966 25.5589 35.3357 24.2099 35.3357 22.6339C35.3357 21.0234 35.8966 19.666 37.0185 18.5615C38.1404 17.4573 39.4891 16.9052 41.0648 16.9052C42.6753 16.9052 44.0327 17.4573 45.1372 18.5615C46.2418 19.666 46.794 21.0234 46.794 22.6339C46.794 24.2099 46.2418 25.5589 45.1372 26.6807C44.0327 27.8023 42.6753 28.363 41.0648 28.363ZM24.9992 24.0766C23.0787 22.3776 21.4421 20.9005 20.0893 19.6453C18.7365 18.3901 17.6402 17.2576 16.8003 16.2479C15.9603 15.2382 15.344 14.3021 14.9513 13.4396C14.5586 12.5767 14.3622 11.6885 14.3622 10.775C14.3622 9.23923 14.903 7.93055 15.9846 6.84896C17.0666 5.76736 18.386 5.22656 19.943 5.22656C20.8885 5.22656 21.7926 5.44688 22.6555 5.8875C23.5183 6.32813 24.2996 6.95312 24.9992 7.7625C25.6989 6.96667 26.4867 6.34497 27.3628 5.8974C28.2391 5.45017 29.1433 5.22656 30.0753 5.22656C31.6326 5.22656 32.9487 5.77066 34.0237 6.85885C35.0987 7.94739 35.6362 9.27292 35.6362 10.8354C35.6362 11.7222 35.4398 12.5936 35.0471 13.4495C34.6544 14.3054 34.0381 15.2382 33.1982 16.2479C32.3582 17.2576 31.2619 18.3901 29.9091 19.6453C28.5563 20.9005 26.9197 22.3776 24.9992 24.0766Z" fill="#250427"/>
</svg>
